<mxfile host="app.diagrams.net" modified="2024-02-09T23:50:29.984Z" agent="Mozilla/5.0 (Windows NT 10.0; Win64; x64; rv:122.0) Gecko/20100101 Firefox/122.0" etag="cUiKBH8dIIO9pLHI6c5q" version="23.1.1" type="github">
  <diagram name="Page-1" id="e7e014a7-5840-1c2e-5031-d8a46d1fe8dd">
    <mxGraphModel dx="622" dy="1176" grid="1" gridSize="10" guides="1" tooltips="1" connect="1" arrows="1" fold="1" page="1" pageScale="1" pageWidth="1169" pageHeight="826" background="none" math="0" shadow="0">
      <root>
        <mxCell id="0" />
        <mxCell id="1" parent="0" />
        <mxCell id="2L6cFFF6FckJmCNwa9ep-76" value="" style="rounded=1;whiteSpace=wrap;html=1;" vertex="1" parent="1">
          <mxGeometry x="25" y="430" width="795" height="500" as="geometry" />
        </mxCell>
        <mxCell id="2L6cFFF6FckJmCNwa9ep-77" style="edgeStyle=orthogonalEdgeStyle;rounded=0;orthogonalLoop=1;jettySize=auto;html=1;exitX=0.5;exitY=1;exitDx=0;exitDy=0;" edge="1" parent="1" source="2L6cFFF6FckJmCNwa9ep-49" target="2L6cFFF6FckJmCNwa9ep-58">
          <mxGeometry relative="1" as="geometry">
            <Array as="points">
              <mxPoint x="435" y="400" />
              <mxPoint x="225" y="400" />
            </Array>
          </mxGeometry>
        </mxCell>
        <mxCell id="2L6cFFF6FckJmCNwa9ep-49" value="" style="rounded=1;whiteSpace=wrap;html=1;" vertex="1" parent="1">
          <mxGeometry x="320" y="280" width="230" height="90" as="geometry" />
        </mxCell>
        <mxCell id="2L6cFFF6FckJmCNwa9ep-48" value="&lt;b&gt;&lt;font style=&quot;font-size: 14px;&quot;&gt;Presentation Layer&lt;/font&gt;&lt;/b&gt;" style="rounded=1;whiteSpace=wrap;html=1;" vertex="1" parent="1">
          <mxGeometry x="355" y="260" width="160" height="40" as="geometry" />
        </mxCell>
        <mxCell id="2L6cFFF6FckJmCNwa9ep-50" style="edgeStyle=orthogonalEdgeStyle;rounded=0;orthogonalLoop=1;jettySize=auto;html=1;exitX=1;exitY=0.5;exitDx=0;exitDy=0;" edge="1" parent="1" source="2L6cFFF6FckJmCNwa9ep-47" target="2L6cFFF6FckJmCNwa9ep-48">
          <mxGeometry relative="1" as="geometry" />
        </mxCell>
        <mxCell id="2L6cFFF6FckJmCNwa9ep-47" value="" style="rounded=1;whiteSpace=wrap;html=1;" vertex="1" parent="1">
          <mxGeometry x="340" y="80" width="190" height="110" as="geometry" />
        </mxCell>
        <mxCell id="2L6cFFF6FckJmCNwa9ep-41" value="ADMIN" style="shape=umlActor;verticalLabelPosition=bottom;verticalAlign=top;html=1;outlineConnect=0;" vertex="1" parent="1">
          <mxGeometry x="370" y="100" width="30" height="60" as="geometry" />
        </mxCell>
        <mxCell id="2L6cFFF6FckJmCNwa9ep-42" value="USER_0" style="shape=umlActor;verticalLabelPosition=bottom;verticalAlign=top;html=1;outlineConnect=0;" vertex="1" parent="1">
          <mxGeometry x="420" y="100" width="30" height="60" as="geometry" />
        </mxCell>
        <mxCell id="2L6cFFF6FckJmCNwa9ep-43" value="USER_1" style="shape=umlActor;verticalLabelPosition=bottom;verticalAlign=top;html=1;outlineConnect=0;" vertex="1" parent="1">
          <mxGeometry x="470" y="100" width="30" height="60" as="geometry" />
        </mxCell>
        <mxCell id="2L6cFFF6FckJmCNwa9ep-51" value="Inputs" style="text;html=1;align=center;verticalAlign=middle;resizable=0;points=[];autosize=1;strokeColor=none;fillColor=none;" vertex="1" parent="1">
          <mxGeometry x="460" y="198" width="50" height="30" as="geometry" />
        </mxCell>
        <mxCell id="2L6cFFF6FckJmCNwa9ep-52" value="Display" style="sketch=0;outlineConnect=0;gradientColor=none;fontColor=#545B64;strokeColor=none;fillColor=#879196;dashed=0;verticalLabelPosition=bottom;verticalAlign=top;align=center;html=1;fontSize=12;fontStyle=0;aspect=fixed;shape=mxgraph.aws4.illustration_desktop;pointerEvents=1" vertex="1" parent="1">
          <mxGeometry x="350" y="310" width="32.97" height="30" as="geometry" />
        </mxCell>
        <mxCell id="2L6cFFF6FckJmCNwa9ep-56" style="edgeStyle=orthogonalEdgeStyle;rounded=0;orthogonalLoop=1;jettySize=auto;html=1;exitX=0;exitY=0.5;exitDx=0;exitDy=0;" edge="1" parent="1" source="2L6cFFF6FckJmCNwa9ep-55" target="2L6cFFF6FckJmCNwa9ep-52">
          <mxGeometry relative="1" as="geometry" />
        </mxCell>
        <mxCell id="2L6cFFF6FckJmCNwa9ep-55" value="&lt;div&gt;&lt;b&gt;&lt;font style=&quot;font-size: 8px;&quot;&gt;Web App Frontend&lt;/font&gt;&lt;/b&gt;&lt;/div&gt;&lt;div style=&quot;font-size: 8px;&quot;&gt;&lt;font style=&quot;font-size: 8px;&quot;&gt;React, HTML, CSS&lt;br&gt;&lt;/font&gt;&lt;/div&gt;" style="rounded=0;whiteSpace=wrap;html=1;" vertex="1" parent="1">
          <mxGeometry x="430" y="310" width="80" height="30" as="geometry" />
        </mxCell>
        <mxCell id="2L6cFFF6FckJmCNwa9ep-82" style="edgeStyle=orthogonalEdgeStyle;rounded=0;orthogonalLoop=1;jettySize=auto;html=1;exitX=1;exitY=0.75;exitDx=0;exitDy=0;entryX=0;entryY=0.75;entryDx=0;entryDy=0;" edge="1" parent="1" source="2L6cFFF6FckJmCNwa9ep-57" target="2L6cFFF6FckJmCNwa9ep-63">
          <mxGeometry relative="1" as="geometry" />
        </mxCell>
        <mxCell id="2L6cFFF6FckJmCNwa9ep-57" value="" style="rounded=1;whiteSpace=wrap;html=1;" vertex="1" parent="1">
          <mxGeometry x="85" y="483" width="290" height="147" as="geometry" />
        </mxCell>
        <mxCell id="2L6cFFF6FckJmCNwa9ep-58" value="&lt;font style=&quot;font-size: 14px;&quot;&gt;&lt;b&gt;API LAYER&lt;/b&gt;&lt;/font&gt;" style="rounded=1;whiteSpace=wrap;html=1;" vertex="1" parent="1">
          <mxGeometry x="145" y="460" width="160" height="47" as="geometry" />
        </mxCell>
        <mxCell id="2L6cFFF6FckJmCNwa9ep-59" value="" style="aspect=fixed;sketch=0;html=1;dashed=0;whitespace=wrap;fillColor=#2875E2;strokeColor=#ffffff;points=[[0.005,0.63,0],[0.1,0.2,0],[0.9,0.2,0],[0.5,0,0],[0.995,0.63,0],[0.72,0.99,0],[0.5,1,0],[0.28,0.99,0]];shape=mxgraph.kubernetes.icon2;prIcon=api" vertex="1" parent="1">
          <mxGeometry x="188.28" y="521.25" width="73.44" height="70.5" as="geometry" />
        </mxCell>
        <mxCell id="2L6cFFF6FckJmCNwa9ep-60" value="&lt;div&gt;Error&lt;/div&gt;&lt;div&gt;Handling&lt;br&gt;&lt;/div&gt;" style="rounded=0;whiteSpace=wrap;html=1;" vertex="1" parent="1">
          <mxGeometry x="105" y="540.5" width="70" height="32" as="geometry" />
        </mxCell>
        <mxCell id="2L6cFFF6FckJmCNwa9ep-61" value="&lt;div&gt;Prepare &lt;br&gt;&lt;/div&gt;&lt;div&gt;Responses&lt;br&gt;&lt;/div&gt;" style="rounded=0;whiteSpace=wrap;html=1;" vertex="1" parent="1">
          <mxGeometry x="285" y="540.5" width="70" height="32" as="geometry" />
        </mxCell>
        <mxCell id="2L6cFFF6FckJmCNwa9ep-62" value="Authentication" style="rounded=0;whiteSpace=wrap;html=1;" vertex="1" parent="1">
          <mxGeometry x="185" y="600" width="76.72" height="13.75" as="geometry" />
        </mxCell>
        <mxCell id="2L6cFFF6FckJmCNwa9ep-83" style="edgeStyle=orthogonalEdgeStyle;rounded=0;orthogonalLoop=1;jettySize=auto;html=1;exitX=0;exitY=0.25;exitDx=0;exitDy=0;entryX=1;entryY=0.25;entryDx=0;entryDy=0;" edge="1" parent="1" source="2L6cFFF6FckJmCNwa9ep-63" target="2L6cFFF6FckJmCNwa9ep-57">
          <mxGeometry relative="1" as="geometry" />
        </mxCell>
        <mxCell id="2L6cFFF6FckJmCNwa9ep-89" style="edgeStyle=orthogonalEdgeStyle;rounded=0;orthogonalLoop=1;jettySize=auto;html=1;exitX=0.25;exitY=1;exitDx=0;exitDy=0;entryX=0.25;entryY=0;entryDx=0;entryDy=0;" edge="1" parent="1" source="2L6cFFF6FckJmCNwa9ep-63" target="2L6cFFF6FckJmCNwa9ep-71">
          <mxGeometry relative="1" as="geometry" />
        </mxCell>
        <mxCell id="2L6cFFF6FckJmCNwa9ep-63" value="" style="rounded=1;whiteSpace=wrap;html=1;" vertex="1" parent="1">
          <mxGeometry x="481.72" y="483" width="308.28" height="147" as="geometry" />
        </mxCell>
        <mxCell id="2L6cFFF6FckJmCNwa9ep-64" value="&lt;b style=&quot;font-size: 14px;&quot;&gt;Business Layer&lt;br&gt;&lt;/b&gt;" style="rounded=1;whiteSpace=wrap;html=1;" vertex="1" parent="1">
          <mxGeometry x="555.86" y="460" width="160" height="47" as="geometry" />
        </mxCell>
        <mxCell id="2L6cFFF6FckJmCNwa9ep-101" style="edgeStyle=orthogonalEdgeStyle;rounded=0;orthogonalLoop=1;jettySize=auto;html=1;exitX=0;exitY=0.5;exitDx=0;exitDy=0;entryX=1;entryY=0.25;entryDx=0;entryDy=0;endArrow=none;endFill=0;" edge="1" parent="1" source="2L6cFFF6FckJmCNwa9ep-67" target="2L6cFFF6FckJmCNwa9ep-96">
          <mxGeometry relative="1" as="geometry" />
        </mxCell>
        <mxCell id="2L6cFFF6FckJmCNwa9ep-67" value="&lt;div&gt;External &lt;br&gt;&lt;/div&gt;&lt;div&gt;Integrations&lt;br&gt;&lt;/div&gt;" style="rounded=0;whiteSpace=wrap;html=1;" vertex="1" parent="1">
          <mxGeometry x="701.72" y="529.75" width="70" height="32" as="geometry" />
        </mxCell>
        <mxCell id="2L6cFFF6FckJmCNwa9ep-102" style="edgeStyle=orthogonalEdgeStyle;rounded=0;orthogonalLoop=1;jettySize=auto;html=1;exitX=0;exitY=0.25;exitDx=0;exitDy=0;entryX=1;entryY=0.75;entryDx=0;entryDy=0;endArrow=none;endFill=0;" edge="1" parent="1" source="2L6cFFF6FckJmCNwa9ep-68" target="2L6cFFF6FckJmCNwa9ep-96">
          <mxGeometry relative="1" as="geometry" />
        </mxCell>
        <mxCell id="2L6cFFF6FckJmCNwa9ep-68" value="Calculate" style="rounded=0;whiteSpace=wrap;html=1;" vertex="1" parent="1">
          <mxGeometry x="698.36" y="586.25" width="76.72" height="13.75" as="geometry" />
        </mxCell>
        <mxCell id="2L6cFFF6FckJmCNwa9ep-70" value="" style="rounded=1;whiteSpace=wrap;html=1;" vertex="1" parent="1">
          <mxGeometry x="300" y="750" width="290" height="147" as="geometry" />
        </mxCell>
        <mxCell id="2L6cFFF6FckJmCNwa9ep-91" style="edgeStyle=orthogonalEdgeStyle;rounded=0;orthogonalLoop=1;jettySize=auto;html=1;exitX=0.75;exitY=0;exitDx=0;exitDy=0;entryX=0.75;entryY=1;entryDx=0;entryDy=0;" edge="1" parent="1" source="2L6cFFF6FckJmCNwa9ep-71" target="2L6cFFF6FckJmCNwa9ep-63">
          <mxGeometry relative="1" as="geometry">
            <Array as="points">
              <mxPoint x="485" y="700" />
              <mxPoint x="699" y="700" />
            </Array>
          </mxGeometry>
        </mxCell>
        <mxCell id="2L6cFFF6FckJmCNwa9ep-71" value="&lt;b style=&quot;font-size: 14px;&quot;&gt;Data Layer&lt;br&gt;&lt;/b&gt;" style="rounded=1;whiteSpace=wrap;html=1;" vertex="1" parent="1">
          <mxGeometry x="365" y="730" width="160" height="47" as="geometry" />
        </mxCell>
        <mxCell id="2L6cFFF6FckJmCNwa9ep-73" value="&lt;div&gt;Database&lt;/div&gt;&lt;div&gt;Server&lt;br&gt;&lt;/div&gt;" style="rounded=0;whiteSpace=wrap;html=1;" vertex="1" parent="1">
          <mxGeometry x="320" y="850" width="70" height="32" as="geometry" />
        </mxCell>
        <mxCell id="2L6cFFF6FckJmCNwa9ep-74" value="Client Data" style="rounded=0;whiteSpace=wrap;html=1;" vertex="1" parent="1">
          <mxGeometry x="485.86" y="806.5" width="70" height="22.5" as="geometry" />
        </mxCell>
        <mxCell id="2L6cFFF6FckJmCNwa9ep-75" value="Business Data" style="rounded=0;whiteSpace=wrap;html=1;" vertex="1" parent="1">
          <mxGeometry x="470" y="860" width="100" height="23" as="geometry" />
        </mxCell>
        <mxCell id="2L6cFFF6FckJmCNwa9ep-78" style="edgeStyle=orthogonalEdgeStyle;rounded=0;orthogonalLoop=1;jettySize=auto;html=1;exitX=0.75;exitY=0;exitDx=0;exitDy=0;entryX=0.75;entryY=1;entryDx=0;entryDy=0;" edge="1" parent="1" source="2L6cFFF6FckJmCNwa9ep-58" target="2L6cFFF6FckJmCNwa9ep-49">
          <mxGeometry relative="1" as="geometry">
            <mxPoint x="560" y="410" as="targetPoint" />
            <Array as="points">
              <mxPoint x="265" y="420" />
              <mxPoint x="493" y="420" />
              <mxPoint x="493" y="370" />
            </Array>
          </mxGeometry>
        </mxCell>
        <mxCell id="2L6cFFF6FckJmCNwa9ep-79" value="Requests" style="text;html=1;align=center;verticalAlign=middle;resizable=0;points=[];autosize=1;strokeColor=#b85450;fillColor=#f8cecc;" vertex="1" parent="1">
          <mxGeometry x="275" y="378" width="70" height="30" as="geometry" />
        </mxCell>
        <mxCell id="2L6cFFF6FckJmCNwa9ep-80" value="Responses" style="text;html=1;align=center;verticalAlign=middle;resizable=0;points=[];autosize=1;strokeColor=#6c8ebf;fillColor=#dae8fc;" vertex="1" parent="1">
          <mxGeometry x="390" y="398" width="80" height="30" as="geometry" />
        </mxCell>
        <mxCell id="2L6cFFF6FckJmCNwa9ep-84" value="Requests" style="text;html=1;strokeColor=#b85450;fillColor=#f8cecc;align=center;verticalAlign=middle;whiteSpace=wrap;rounded=0;" vertex="1" parent="1">
          <mxGeometry x="400" y="561.75" width="60" height="30" as="geometry" />
        </mxCell>
        <mxCell id="2L6cFFF6FckJmCNwa9ep-87" value="Responses" style="text;html=1;strokeColor=#6c8ebf;fillColor=#dae8fc;align=center;verticalAlign=middle;whiteSpace=wrap;rounded=0;" vertex="1" parent="1">
          <mxGeometry x="400" y="491.25" width="60" height="30" as="geometry" />
        </mxCell>
        <mxCell id="2L6cFFF6FckJmCNwa9ep-90" value="Queiries" style="text;html=1;strokeColor=#82b366;fillColor=#d5e8d4;align=center;verticalAlign=middle;whiteSpace=wrap;rounded=0;" vertex="1" parent="1">
          <mxGeometry x="441.72" y="650" width="60" height="30" as="geometry" />
        </mxCell>
        <mxCell id="2L6cFFF6FckJmCNwa9ep-92" value="Data" style="text;html=1;strokeColor=#d79b00;fillColor=#ffe6cc;align=center;verticalAlign=middle;whiteSpace=wrap;rounded=0;" vertex="1" parent="1">
          <mxGeometry x="571.72" y="670" width="60" height="30" as="geometry" />
        </mxCell>
        <mxCell id="2L6cFFF6FckJmCNwa9ep-96" value="" style="rounded=1;whiteSpace=wrap;html=1;" vertex="1" parent="1">
          <mxGeometry x="490" y="512.5" width="180" height="107.5" as="geometry" />
        </mxCell>
        <mxCell id="2L6cFFF6FckJmCNwa9ep-95" value="" style="sketch=0;points=[[0,0,0],[0.25,0,0],[0.5,0,0],[0.75,0,0],[1,0,0],[0,1,0],[0.25,1,0],[0.5,1,0],[0.75,1,0],[1,1,0],[0,0.25,0],[0,0.5,0],[0,0.75,0],[1,0.25,0],[1,0.5,0],[1,0.75,0]];points=[[0,0,0],[0.25,0,0],[0.5,0,0],[0.75,0,0],[1,0,0],[0,1,0],[0.25,1,0],[0.5,1,0],[0.75,1,0],[1,1,0],[0,0.25,0],[0,0.5,0],[0,0.75,0],[1,0.25,0],[1,0.5,0],[1,0.75,0]];outlineConnect=0;fontColor=#232F3E;fillColor=#E7157B;strokeColor=#ffffff;dashed=0;verticalLabelPosition=bottom;verticalAlign=top;align=center;html=1;fontSize=12;fontStyle=0;aspect=fixed;shape=mxgraph.aws4.resourceIcon;resIcon=mxgraph.aws4.backint_agent;" vertex="1" parent="1">
          <mxGeometry x="497" y="521.25" width="78.75" height="78.75" as="geometry" />
        </mxCell>
        <mxCell id="2L6cFFF6FckJmCNwa9ep-97" value="&lt;div&gt;&lt;b&gt;&lt;font style=&quot;font-size: 8px;&quot;&gt;App Backend&lt;br&gt;&lt;/font&gt;&lt;/b&gt;&lt;/div&gt;&lt;div style=&quot;font-size: 8px;&quot;&gt;&lt;font style=&quot;font-size: 8px;&quot;&gt;Javascript, NodeJS&lt;br&gt;&lt;/font&gt;&lt;/div&gt;" style="rounded=0;whiteSpace=wrap;html=1;" vertex="1" parent="1">
          <mxGeometry x="585" y="551.25" width="80" height="30" as="geometry" />
        </mxCell>
        <mxCell id="2L6cFFF6FckJmCNwa9ep-103" value="" style="sketch=0;shadow=0;dashed=0;html=1;labelPosition=center;verticalLabelPosition=bottom;verticalAlign=top;align=center;outlineConnect=0;shape=mxgraph.veeam.3d.hard_drive;fillColor=#637D8A;gradientColor=#324752;strokeColor=none;" vertex="1" parent="1">
          <mxGeometry x="490.86" y="780" width="62" height="23" as="geometry" />
        </mxCell>
        <mxCell id="2L6cFFF6FckJmCNwa9ep-104" value="" style="shadow=0;dashed=0;html=1;labelPosition=center;verticalLabelPosition=bottom;verticalAlign=top;align=center;outlineConnect=0;shape=mxgraph.veeam.3d.hard_drive;fillColor=#637D8A;gradientColor=#324752;strokeColor=none;" vertex="1" parent="1">
          <mxGeometry x="490" y="839" width="62" height="21" as="geometry" />
        </mxCell>
        <mxCell id="2L6cFFF6FckJmCNwa9ep-105" value="" style="image;html=1;image=img/lib/clip_art/computers/Server_Rack_128x128.png" vertex="1" parent="1">
          <mxGeometry x="320" y="780" width="75" height="60" as="geometry" />
        </mxCell>
        <mxCell id="2L6cFFF6FckJmCNwa9ep-106" value="&lt;font style=&quot;font-size: 14px;&quot;&gt;&lt;b&gt;Users&lt;/b&gt;&lt;/font&gt;" style="rounded=1;whiteSpace=wrap;html=1;" vertex="1" parent="1">
          <mxGeometry x="377" y="60" width="120" height="30" as="geometry" />
        </mxCell>
      </root>
    </mxGraphModel>
  </diagram>
</mxfile>
